{
  "accessors": [
    {
      "bufferView": 2,
      "componentType": 5126,
      "count": 65532,
      "max": [
        295.27554321289062,
        101.92205047607422,
        2.6615359783172607
      ],
      "min": [
        -59.055099487304688,
        -101.92205047607422,
        -6.3506698608398438
      ],
      "type": "VEC3"
    },
    {
      "bufferView": 2,
      "byteOffset": 786384,
      "componentType": 5126,
      "count": 65532,
      "max": [
        2.0000002223241609e-06,
        0.15782095491886139,
        1
      ],
      "min": [
        -1.0000003385357559e-06,
        -0.15782193839550018,
        0.98746764659881592
      ],
      "type": "VEC3"
    },
    {
      "bufferView": 3,
      "componentType": 5126,
      "count": 65532,
      "max": [
        -1,
        0.00022643269039690495,
        3.608536280808039e-05,
        1
      ],
      "min": [
        -1,
        -9.563895218889229e-06,
        -3.5903518437407911e-05,
        1
      ],
      "type": "VEC4"
    },
    {
      "bufferView": 1,
      "componentType": 5126,
      "count": 65532,
      "max": [
        1.7251930236816406,
        0.99578797817230225
      ],
      "min": [
        0.0017079999670386314,
        0.0042119999416172504
      ],
      "type": "VEC2"
    },
    {
      "bufferView": 0,
      "componentType": 5125,
      "count": 380970,
      "max": [
        65531
      ],
      "min": [
        0
      ],
      "type": "SCALAR"
    },
    {
      "bufferView": 2,
      "byteOffset": 1572768,
      "componentType": 5126,
      "count": 65532,
      "max": [
        288.81640625,
        98.838294982910156,
        2.6615359783172607
      ],
      "min": [
        -52.595962524414062,
        -98.838294982910156,
        -5.857813835144043
      ],
      "type": "VEC3"
    },
    {
      "bufferView": 2,
      "byteOffset": 2359152,
      "componentType": 5126,
      "count": 65532,
      "max": [
        1.0000003385357559e-06,
        0.15782193839550018,
        1
      ],
      "min": [
        -1.0000003385357559e-06,
        -0.15782193839550018,
        0.98746764659881592
      ],
      "type": "VEC3"
    },
    {
      "bufferView": 3,
      "byteOffset": 1048512,
      "componentType": 5126,
      "count": 65532,
      "max": [
        -1,
        0.00015598692698404193,
        2.5046889277291484e-05,
        1
      ],
      "min": [
        -1,
        -8.2213200585101731e-06,
        -1.8398768588667735e-05,
        1
      ],
      "type": "VEC4"
    },
    {
      "bufferView": 1,
      "byteOffset": 524256,
      "componentType": 5126,
      "count": 65532,
      "max": [
        1.6937750577926636,
        0.98075598478317261
      ],
      "min": [
        0.033144000917673111,
        0.019213000312447548
      ],
      "type": "VEC2"
    },
    {
      "bufferView": 0,
      "byteOffset": 1523880,
      "componentType": 5125,
      "count": 385701,
      "max": [
        65531
      ],
      "min": [
        0
      ],
      "type": "SCALAR"
    },
    {
      "bufferView": 2,
      "byteOffset": 3145536,
      "componentType": 5126,
      "count": 20402,
      "max": [
        288.81640625,
        97.95721435546875,
        2.6615359783172607
      ],
      "min": [
        118.11022186279297,
        -98.838294982910156,
        -5.857813835144043
      ],
      "type": "VEC3"
    },
    {
      "bufferView": 2,
      "byteOffset": 3390360,
      "componentType": 5126,
      "count": 20402,
      "max": [
        1.0000003385357559e-06,
        0.15781998634338379,
        1
      ],
      "min": [
        -1.0000003385357559e-06,
        -0.15782193839550018,
        0.98746764659881592
      ],
      "type": "VEC3"
    },
    {
      "bufferView": 3,
      "byteOffset": 2097024,
      "componentType": 5126,
      "count": 20402,
      "max": [
        -1,
        0.00016412560944445431,
        2.5218007067451254e-05,
        1
      ],
      "min": [
        -1,
        -1.0908748663496226e-05,
        -2.2239459212869406e-05,
        1
      ],
      "type": "VEC4"
    },
    {
      "bufferView": 1,
      "byteOffset": 1048512,
      "componentType": 5126,
      "count": 20402,
      "max": [
        0.8634219765663147,
        0.98073899745941162
      ],
      "min": [
        0.033124998211860657,
        0.023498000577092171
      ],
      "type": "VEC2"
    },
    {
      "bufferView": 0,
      "byteOffset": 3066684,
      "componentType": 5125,
      "count": 118065,
      "max": [
        20401
      ],
      "min": [
        0
      ],
      "type": "SCALAR"
    },
    {
      "bufferView": 2,
      "byteOffset": 3635184,
      "componentType": 5126,
      "count": 63430,
      "max": [
        317.40411376953125,
        41.226665496826172,
        8.9356660842895508
      ],
      "min": [
        -7.0074458122253418,
        -41.226665496826172,
        0
      ],
      "type": "VEC3"
    },
    {
      "bufferView": 2,
      "byteOffset": 4396344,
      "componentType": 5126,
      "count": 63430,
      "max": [
        1,
        1,
        1
      ],
      "min": [
        -1,
        -1,
        -1
      ],
      "type": "VEC3"
    },
    {
      "bufferView": 3,
      "byteOffset": 2423456,
      "componentType": 5126,
      "count": 63430,
      "max": [
        1,
        1,
        1,
        1
      ],
      "min": [
        -1,
        -1,
        -1,
        -1
      ],
      "type": "VEC4"
    },
    {
      "bufferView": 1,
      "byteOffset": 1211728,
      "componentType": 5126,
      "count": 63430,
      "max": [
        0.99667102098464966,
        0.99985998868942261
      ],
      "min": [
        0.00050000002374872565,
        0.00050000002374872565
      ],
      "type": "VEC2"
    },
    {
      "bufferView": 0,
      "byteOffset": 3538944,
      "componentType": 5125,
      "count": 237264,
      "max": [
        63429
      ],
      "min": [
        0
      ],
      "type": "SCALAR"
    }
  ],
  "asset": {
    "extras": {
      "author": "sBjamms (https://sketchfab.com/sbjamms11)",
      "license": "CC-BY-4.0 (http://creativecommons.org/licenses/by/4.0/)",
      "source": "https://sketchfab.com/3d-models/train-track-dff84793ce2f4d7ca19e67b5194eeca2",
      "title": "Train Track"
    },
    "generator": "Sketchfab-8.66.1",
    "version": "2.0"
  },
  "bufferViews": [
    {
      "buffer": 0,
      "byteLength": 4488000,
      "byteOffset": 0,
      "name": "floatBufferViews",
      "target": 34963
    },
    {
      "buffer": 0,
      "byteLength": 1719168,
      "byteOffset": 4488000,
      "byteStride": 8,
      "name": "floatBufferViews",
      "target": 34962
    },
    {
      "buffer": 0,
      "byteLength": 5157504,
      "byteOffset": 6207168,
      "byteStride": 12,
      "name": "floatBufferViews",
      "target": 34962
    },
    {
      "buffer": 0,
      "byteLength": 3438336,
      "byteOffset": 11364672,
      "byteStride": 16,
      "name": "floatBufferViews",
      "target": 34962
    }
  ],
  "buffers": [
    {
      "byteLength": 14803008,
      "uri": "scene.bin"
    }
  ],
  "images": [
    {
      "uri": "textures/Solid_baseColor.jpeg"
    },
    {
      "uri": "textures/Solid_metallicRoughness.png"
    },
    {
      "uri": "textures/Solid_normal.png"
    },
    {
      "uri": "textures/Wall_baseColor.jpeg"
    },
    {
      "uri": "textures/Wall_metallicRoughness.png"
    },
    {
      "uri": "textures/Wall_normal.png"
    }
  ],
  "materials": [
    {
      "doubleSided": true,
      "name": "Solid",
      "normalTexture": {
        "index": 2,
        "scale": 1,
        "texCoord": 0
      },
      "occlusionTexture": {
        "index": 1,
        "strength": 1,
        "texCoord": 0
      },
      "pbrMetallicRoughness": {
        "baseColorFactor": [
          1,
          1,
          1,
          1
        ],
        "baseColorTexture": {
          "index": 0,
          "texCoord": 0
        },
        "metallicFactor": 1,
        "metallicRoughnessTexture": {
          "index": 1,
          "texCoord": 0
        },
        "roughnessFactor": 1
      }
    },
    {
      "doubleSided": true,
      "name": "Wall",
      "normalTexture": {
        "index": 5,
        "scale": 1,
        "texCoord": 0
      },
      "occlusionTexture": {
        "index": 4,
        "strength": 1,
        "texCoord": 0
      },
      "pbrMetallicRoughness": {
        "baseColorFactor": [
          1,
          1,
          1,
          1
        ],
        "baseColorTexture": {
          "index": 3,
          "texCoord": 0
        },
        "metallicFactor": 1,
        "metallicRoughnessTexture": {
          "index": 4,
          "texCoord": 0
        },
        "roughnessFactor": 1
      }
    }
  ],
  "meshes": [
    {
      "name": "defaultMaterial",
      "primitives": [
        {
          "attributes": {
            "NORMAL": 1,
            "POSITION": 0,
            "TANGENT": 2,
            "TEXCOORD_0": 3
          },
          "indices": 4,
          "material": 1,
          "mode": 4
        }
      ]
    },
    {
      "name": "defaultMaterial",
      "primitives": [
        {
          "attributes": {
            "NORMAL": 6,
            "POSITION": 5,
            "TANGENT": 7,
            "TEXCOORD_0": 8
          },
          "indices": 9,
          "material": 1,
          "mode": 4
        }
      ]
    },
    {
      "name": "defaultMaterial",
      "primitives": [
        {
          "attributes": {
            "NORMAL": 11,
            "POSITION": 10,
            "TANGENT": 12,
            "TEXCOORD_0": 13
          },
          "indices": 14,
          "material": 1,
          "mode": 4
        }
      ]
    },
    {
      "name": "defaultMaterial",
      "primitives": [
        {
          "attributes": {
            "NORMAL": 16,
            "POSITION": 15,
            "TANGENT": 17,
            "TEXCOORD_0": 18
          },
          "indices": 19,
          "material": 0,
          "mode": 4
        }
      ]
    }
  ],
  "nodes": [
    {
      "children": [
        1
      ],
      "name": "RootNode (gltf orientation matrix)",
      "rotation": [
        -0.70710678118654746,
        -0,
        -0,
        0.70710678118654757
      ]
    },
    {
      "children": [
        2
      ],
      "name": "RootNode (model correction matrix)"
    },
    {
      "children": [
        3,
        7
      ],
      "matrix": [
        1,
        0,
        0,
        0,
        0,
        -4.3711390063094768e-08,
        0.999999999999999,
        0,
        0,
        -0.999999999999999,
        -4.3711390063094768e-08,
        0,
        0,
        0,
        0,
        1
      ],
      "name": "Collada visual scene group"
    },
    {
      "children": [
        4,
        5,
        6
      ],
      "matrix": [
        1,
        0,
        0,
        0,
        0,
        0,
        -1,
        0,
        0,
        1,
        0,
        0,
        -236.22045900000001,
        0,
        0,
        1
      ],
      "name": "Plane009"
    },
    {
      "mesh": 0,
      "name": "defaultMaterial"
    },
    {
      "mesh": 1,
      "name": "defaultMaterial"
    },
    {
      "mesh": 2,
      "name": "defaultMaterial"
    },
    {
      "children": [
        8
      ],
      "matrix": [
        1,
        0,
        0,
        0,
        0,
        0,
        -1,
        0,
        0,
        1,
        0,
        0,
        -276.85269199999999,
        2.1917840000000002,
        0,
        1
      ],
      "name": "Plane007"
    },
    {
      "mesh": 3,
      "name": "defaultMaterial"
    }
  ],
  "samplers": [
    {
      "magFilter": 9729,
      "minFilter": 9987,
      "wrapS": 10497,
      "wrapT": 10497
    }
  ],
  "scene": 0,
  "scenes": [
    {
      "name": "OSG_Scene",
      "nodes": [
        0
      ]
    }
  ],
  "textures": [
    {
      "sampler": 0,
      "source": 0
    },
    {
      "sampler": 0,
      "source": 1
    },
    {
      "sampler": 0,
      "source": 2
    },
    {
      "sampler": 0,
      "source": 3
    },
    {
      "sampler": 0,
      "source": 4
    },
    {
      "sampler": 0,
      "source": 5
    }
  ]
}

